<svg xmlns="http://www.w3.org/2000/svg" width="276.000000pt" height="161.000000pt" version="1.0" viewBox="0 0 276.000000 161.000000"><path d="M106.4 44c-3.1 1.2-11 10.5-15.2 17.9-3.5 6.2-3.7 6.4-4 3.6-.9-9.3-5.7-19.5-9.1-19.5-4.3 0-18.8 19.7-26.1 35.3-5 10.9-9.8 25.5-10.6 32.1-.6 4.6-.3 5.5 1.9 8.2l2.5 2.9 18.9-.1c18.9-.1 50.1-3.4 79.8-8.4 20.3-3.5 91.8-18.9 92.9-20.1.8-.8.6-1-.9-.5-2.7.8-74.6 16-85.5 18.1-27.8 5.2-87.1 11.3-98 10-8.3-1-10-2.5-10-8.6 0-10 9.9-34.8 20.1-50.5 5.7-8.6 14.3-17.9 15.8-16.9 2.9 1.7 7.1 14 7.1 20.7 0 4.8 1.7 4.9 3.6.1 3.9-9.2 15-23.3 18.4-23.3 2 .1 4.2 3.2 10 14.4 2.7 5.2 5.1 9.2 5.4 8.9.6-.6-6.5-15-10.1-20.4-2.8-4.3-4-4.9-6.9-3.9"/><path d="M172 63.4c-2.7 6.4-5.2 15.4-4.7 16.9.2.6 1.3-1.7 2.4-5.3l2-6.5 1.8 4c.9 2.2 2.2 5.1 2.7 6.5.6 1.4 1.2 2 1.5 1.3.2-.6-.9-3.9-2.6-7.4-2.8-5.9-2.9-6.4-1.5-9.7.8-1.9 1.2-3.7.9-4-.2-.3-1.4 1.6-2.5 4.2M197.9 62c-1.7 1.7-2.9 3.3-2.6 3.6.2.3 1.9-.9 3.6-2.7 2.1-2.1 3.6-2.8 4.2-2.2.5.5 1.5 4.1 2.2 7.9.7 3.7 1.6 6.4 2 5.8.3-.6-.1-4.2-1.1-8-2-8.1-3.7-9-8.3-4.4M187.9 61.2c0 .2-.3 4.9-.6 10.5-.3 7.2-.2 10.3.6 10.3.7 0 1.1-3.5 1.1-10.5 0-5.8-.2-10.5-.5-10.5s-.5.1-.6.2M150.2 65.7c-2.5.9-9.3 17.3-7.2 17.3.5 0 1.2-1.5 1.5-3.3 1-4.3 5.5-12.7 7-12.7s3.1 3.4 6 12.4c1.2 3.8 2.5 6.4 2.8 5.9s-.5-4-1.9-7.9c-3.9-11.1-5.1-12.7-8.2-11.7M179.8 71c-1.6 1.4-2.8 2.9-2.8 3.4 0 .4.7 0 1.6-.8 2.4-2.4 3.2-1.9 3.6 2.1.3 3.4.4 3.2.8-1.5.3-3 .3-5.5 0-5.6s-1.7.9-3.2 2.4M124.4 76.3c-8.5 5.1-13.7 8.8-13.1 9.3.2.3 2.8-1.1 5.6-3 2.8-2 7.4-4.7 10.1-6.2 2.8-1.5 5-3.1 5-3.6 0-1.1.3-1.3-7.6 3.5M203.2 79.8c-4.5 1.9-8.2 3.9-8.2 4.3s2.5-.3 5.5-1.7c3.1-1.3 5.8-2.4 6-2.4.3 0 .5 2.4.5 5.4s.4 5.8 1 6.1c.6.4.8-1.5.4-5.3-.6-5.4-.5-6 1.7-7.5 4.2-3 1.5-2.6-6.9 1.1M98.4 81.4c-.3.7-.1 2.9.4 4.7l1 3.4.1-4.8c.1-4.7-.5-6-1.5-3.3M75.8 85.1c-.2 2.2 0 4.3.4 4.5.4.3.8-1.5.8-4 0-5.7-.7-6-1.2-.5"/><path d="M151 84.7c0 3.2 2.6 11.6 3.7 12 1.5.6 9.8-4.5 8.9-5.4-.2-.3-1.9.5-3.6 1.7-3.9 2.8-5.6 2.1-6.4-2.7-.7-3.8-2.6-7.9-2.6-5.6M124.5 93.1c-4.9.4-10.3.5-12 .2-2.4-.4-2.7-.2-1.8.7 1.4 1.5 24.3.4 24.3-1.1 0-.5-.3-.8-.7-.8-.5.1-4.8.6-9.8 1M86.8 94.7c-1.6.4-1.6.6-.1 2.9 1.5 2.4 1.5 2.5-.5 3.1-1.2.3-2.2 1-2.2 1.5 0 .6.7.7 1.8.2.9-.4 3.1-.7 4.9-.6s3.5-.3 3.8-.8c.4-.6-.4-.9-1.7-.7-1.8.1-2.4-.4-2.6-2.3-.4-3.1-1.2-3.8-3.4-3.3M111 102.8c0 .8 13.9 6.2 15.6 6.2 1.5-.1-1.8-1.7-8.9-4.4-3.7-1.4-6.7-2.2-6.7-1.8"/></svg>