<svg xmlns="http://www.w3.org/2000/svg" width="1000" height="583.562"><path d="M258 523.028c-1.4-.795-5.141-6.008-8.5-11.841l-6-10.42-6.105.482c-3.569.282-7.689-.04-9.916-.775-8.463-2.793-17.984-15.811-15.9-21.739 2.16-6.142 10.13-6.8 13.238-1.092 3.532 6.486 6.162 8.838 9.882 8.838 5.356 0 14.857-5.634 22.929-13.598 6.065-5.984 8.068-8.887 12.762-18.5 3.57-7.31 7.132-16.875 9.926-26.652l4.358-15.25-1.808-7.25c-.994-3.987-2.103-9.204-2.464-11.592-.754-4.985.576-4.935-14.902-.569-7.993 2.255-12.108 2.83-20.5 2.866-9.538.041-10.972-.204-15.646-2.67-17.387-9.17-38.938-33.935-51.686-59.393l-2.558-5.11-19.305 19.222c-34.078 33.929-55.832 48.71-71.805 48.791-6.813.035-10.53-1.817-15.907-7.926-6.302-7.16-8.592-15.603-8.508-31.369.08-15.12 1.578-23.818 4.52-26.25 2.878-2.38 7.436-2.209 10.021.377 1.973 1.972 2.063 2.678 1.25 9.75-1.512 13.151-1.103 27.034.953 32.362 2.374 6.155 5.976 9.069 10.105 8.177 6.78-1.464 19.22-9.04 32.566-19.832 9.305-7.523 31.654-29.175 42.106-40.792l7.835-8.709-1.422-4.028c-4.43-12.558-6.019-24.184-6.019-44.055 0-16.783.326-20.963 2.339-30 5.19-23.296 22.067-59.297 35.864-76.5 11.831-14.75 25.9-13.532 30.775 2.666 4.529 15.05 4.107 46.799-.894 67.334-6.68 27.43-21.045 56.487-42.977 86.937-1.19 1.652 6.593 17.48 14.494 29.472 7.246 11 22.784 27.513 31.133 33.089 5.379 3.591 6.624 4 12.13 3.987 6.562-.015 15.144-1.738 25.636-5.145 3.575-1.161 6.607-2.195 6.739-2.298.131-.102-.427-6.454-1.24-14.114-2.003-18.88-1.875-27.958.6-42.553 3.298-19.447 9.35-36.44 13.834-38.839 1.064-.57 3.462-1.036 5.327-1.036 4.31 0 7.376 3.142 9.298 9.527 2.387 7.932 3.746 31.34 3.09 53.223-.333 11.138-.345 20.25-.025 20.25.319 0 5.372-2.556 11.228-5.68 25.533-13.622 54.26-31.995 78.77-50.382l13.12-9.842.543-22.298c.457-18.745.954-24.237 3.121-34.47 5.574-26.317 13.62-45.887 31.177-75.828 20.427-34.837 42.186-54.676 98.918-90.19 20.61-12.9 23.39-13.88 30.226-10.636 4.422 2.099 7.222 7.876 7.252 14.966.049 11.47-7.779 41.084-15.493 58.612-11.795 26.8-33.791 59.14-62.339 91.654-18.544 21.121-56.412 57.628-74.411 71.738-3.373 2.644-3.382 3.38-.267 21.768 2.747 16.215 5.126 22.836 9.848 27.406 13.456 13.022 46.029 9.385 93.477-10.436l9.293-3.882-.293-37.882-.293-37.882 2.771-2.079c2.32-1.74 3.236-1.904 5.616-1.006 2.567.97 3 .811 4.436-1.62 3.87-6.553 10.976-15.243 13.943-17.051 6.93-4.226 15.035-1.326 19.734 7.059 2.248 4.01 2.5 5.58 2.5 15.536v11.074l-6.878 13.926c-3.783 7.659-7.962 16.337-9.286 19.285l-2.408 5.36 2.362-1.86c1.3-1.023 5.59-4.278 9.536-7.233l7.174-5.373v-5.667c0-21.552 15.933-42.046 32.715-42.077 4.358-.008 5.768.476 8.578 2.942 1.851 1.626 3.89 4.715 4.537 6.877.647 2.158 3.416 7.355 6.153 11.548l4.976 7.623 14.77-9.612c34.015-22.136 83.757-59.175 209.122-155.716 21.233-16.351 23.267-17.38 27.926-14.115 3.61 2.528 2.762 6.7-5.38 26.476-22.38 54.352-36.986 99.148-40.42 123.967-1.56 11.274-.113 32 2.235 32 .544 0 6.262-5.4 12.707-12 9.838-10.074 12.201-12 14.726-12 3.693 0 7.355 3.603 7.355 7.238 0 2.857-2.246 5.93-11.523 15.762-22.004 23.322-32.477 47.475-32.477 74.9 0 15.101 4.142 27.174 11.094 32.333 2.43 1.804 2.829 1.826 6.343.358 6.622-2.767 16.487-11.557 23.137-20.618 10.936-14.9 16.238-18.375 21.515-14.102 4.208 3.408 3.186 7.6-4.139 16.983-13.452 17.23-16.95 26.899-16.95 46.844.003 25.84 5.54 61.302 9.575 61.302 3.333 0 17.934-19.218 26.824-35.305 4.218-7.633 7.138-9.543 11.7-7.654 1.5.622 3.3 2.51 3.999 4.195 1.161 2.805.98 3.621-2.148 9.664-9.214 17.797-23.94 36.69-32.45 41.63-8.166 4.74-15.99 3.818-20.403-2.403-6.742-9.506-12.836-48.64-11.945-76.71.2-6.28.302-11.417.227-11.417-.074 0-1.75.675-3.725 1.5-4.466 1.866-12.677 1.938-16.936.148-4.563-1.918-11.35-9.689-14.761-16.903-4.848-10.25-6.314-19.106-5.656-34.154.787-17.984 4.29-31.877 11.832-46.925l3.926-7.835-2.975-3.388c-1.636-1.863-3.473-5.088-4.082-7.166-1.733-5.907-2.826-26.562-1.893-35.762 2.41-23.789 14.337-62.541 35.827-116.417 2.114-5.3 2.116-5.375.144-4-1.106.771-20.814 15.841-43.795 33.49-87.316 67.051-117.763 89.584-151.877 112.4-10.95 7.322-20.133 13.515-20.408 13.76-1.05.939 6.843 6.536 14.804 10.5 9.87 4.912 17.313 5.922 24.81 3.368 6.849-2.334 9.873-2.083 12.313 1.019 5.077 6.454 1.066 11.33-11.817 14.363-14.306 3.368-34.328-3.397-48.945-16.54l-5.005-4.5-2.403 2.271c-1.321 1.25-2.994 4.071-3.718 6.271-4.171 12.688-17.51 20.506-29.91 17.53l-4.743-1.137-23.693 12.134L557 342.643v13.669c-.001 7.518.491 31.057 1.094 52.308.825 29.13.81 39.17-.06 40.798-2.612 4.88-10.541 4.635-12.833-.396-.641-1.407-1.526-21.415-2.242-50.682-.65-26.598-1.266-48.455-1.367-48.572-.102-.117-6.005 2.06-13.118 4.84-25.743 10.056-47.463 15.05-65.474 15.057-16.123.006-27.15-4.199-35.897-13.688-7.065-7.665-9.279-14.302-13.574-40.704l-.604-3.708-12.712 9.284c-27.492 20.077-55.561 37.613-80.113 50.049l-14.739 7.465-1.269 9.81c-.698 5.394-1.929 13.03-2.735 16.969-1.432 6.995-1.406 7.342 1.146 15 7.87 23.62 21.945 42.41 37.646 50.256 7.347 3.67 15.004 4.105 21.372 1.212 5.3-2.407 12.216-10.23 16.492-18.654 4.302-8.476 5.305-9.475 9.52-9.475 3.986 0 7.467 3.164 7.467 6.786 0 6.838-14.1 27.023-22.506 32.218-2.98 1.842-3.295 2.447-2.814 5.41.828 5.106-2.642 19.639-5.332 22.329-4.335 4.335-6.954 3.21-17.098-7.345-8.202-8.533-9.25-10.037-9.254-13.261-.004-3.465-.311-3.796-6.535-7.014-12.253-6.336-26.098-21.356-34.628-37.567-3.038-5.772-3.832-6.685-4.397-5.05-5.807 16.806-10.98 27.143-18.661 37.292-4.461 5.894-4.742 6.581-3.324 8.148 1.97 2.178 1.949 6.28-.115 21.76-1.05 7.865-2.25 13.167-3.25 14.343-2.174 2.558-6.086 3.202-9.086 1.498zm34.763-196.047-.263-15-1.5 6c-1.724 6.895-2.056 32.353-.548 42l.937 6 .818-12c.45-6.6.7-18.75.556-27zm266.167-2.75c-.039-.687-.457-2.15-.93-3.25-.72-1.676-.87-1.473-.93 1.25-.038 1.788.38 3.25.93 3.25s.968-.562.93-1.25zm-.93-20.606c0-1.02 4.05-10.085 9-20.144 8.597-17.47 9-18.584 8.985-24.894-.024-10.015-.982-10.392-6.228-2.445-2.484 3.762-5.476 8.745-6.65 11.075-1.173 2.329-3.252 4.968-4.62 5.865-2.471 1.619-2.487 1.728-2.487 17.014 0 9.59.377 15.385 1 15.385.55 0 1-.835 1-1.856zm-371.073-15.61c17.712-27.342 28.79-56.779 31.2-82.91 1.483-16.075.05-38.78-2.617-41.447-1.726-1.726-12.61 14.954-21.918 33.592-12.626 25.281-16.517 39.28-17.302 62.231-.327 9.537-.085 18.386.628 23 1.203 7.781 2.895 15 3.518 15 .197 0 3.118-4.26 6.49-9.466zM627 286.911c0-.275-.9-.019-2 .57s-2 1.296-2 1.57c0 .276.9.019 2-.57s2-1.295 2-1.57zm-11.297-11.599c5.81-5.987 9.35-14.83 5.938-14.83-.748 0-3.385 1.782-5.86 3.961-4.282 3.768-7.627 9.73-9.197 16.388l-.672 2.849 2.794-2.018c1.537-1.11 4.685-3.967 6.997-6.35zM442.5 267.295c48.93-43.597 93.832-99.984 110.494-138.756 5.86-13.636 12.563-36.86 13.69-47.426.749-7.024 3.068-7.852-20.774 7.418-31.597 20.237-45.209 30.539-60.632 45.89-11.616 11.56-19.033 21.398-28.15 37.335-21.41 37.43-29.725 63.09-30.861 95.225-.516 14.6-.48 14.959 1.351 13.448 1.035-.853 7.732-6.764 14.882-13.134zm-262.737 184.67c-8.654-4.851-7.853-20.936 1.798-36.115 3.906-6.143 6.824-8.369 10.974-8.369 6.89 0 11.3 9.126 9.568 19.794-3.005 18.5-13.228 29.8-22.34 24.69zm195.333-35.749c-5.289-2.718-6.604-6.069-6.501-16.564.167-16.948 4.115-25.17 12.088-25.17 6.22 0 10.018 6.568 12.311 21.294 1.637 10.505-.717 16.922-7.36 20.075-4.085 1.938-7.263 2.048-10.538.365zm-74.77-142.985c-1.429-1.587-2.813-6.355-4.702-16.193-1.472-7.669-2.852-14.118-3.065-14.331-1.191-1.191-4.657 2.37-5.703 5.859-2.055 6.86-8.397 9.161-12.682 4.6-2.777-2.955-2.811-7.737-.096-13.346 2.52-5.205 6.66-8.848 13.765-12.114 5.9-2.713 10.993-2.588 14.238.349 2.348 2.124 5.281 11.127 7.96 24.426 3.007 14.928 3.025 18.718.098 21.088-3.175 2.572-7.325 2.43-9.814-.338z"/></svg>