<svg xmlns="http://www.w3.org/2000/svg" width="2606.000000pt" height="725.000000pt" version="1.0" viewBox="0 0 2606.000000 725.000000"><path d="M104.5 1.6C86.6 4.4 62.1 14.4 49.3 24.3 25 43 8.9 68.3 2.9 97.4.8 107.3.8 109.5.7 235c0 139.2-.2 134.1 5.9 153 5.8 17.7 14.4 31.9 27.8 45.8 10.5 10.9 17.5 16.1 31.7 23.6 33.1 17.4 72.1 17.9 106.5 1.1 19.3-9.4 35.9-23.8 47.6-41.5 10.1-15.3 15.3-28.2 18.3-45.7 2.2-12.7 2.2-257.2 0-270.9-5.8-35.8-31-70.2-62.7-85.7-20.3-10-31.4-12.7-52.3-13.2-8.8-.2-17.3-.1-19 .1M133 37.1c18.9 3 34.2 11 48.6 25.4 6.9 6.9 8.8 9.6 13.7 19.5 10.4 21.1 9.7 9.8 9.7 153.5 0 134 .1 130.6-5 144.4-13.6 36.5-50.3 59.4-88.4 55.1-34.4-3.9-60.8-25.9-72.2-60l-2.9-8.5v-130c0-147.2-.7-133.8 8.4-153C50.7 71.3 55.5 65.2 66.3 56c18.2-15.6 43.4-22.7 66.7-18.9"/><path d="M117 162.1c0 8.6-6.8 23.8-15.5 34.5-11.8 14.6-27.2 23.2-46.5 25.8-4.7.6-8.5 1.6-8.5 2.1 0 .6 3 1.3 6.7 1.7 16.3 1.6 31.6 8.6 42.2 19.3 4 4.1 9.1 10 11.2 13.2 4.6 6.9 9.3 18.8 10.1 25.4.6 4.8 2.3 5.9 2.3 1.4 0-4.3 4.9-17.8 8.7-24.4 5.6-9.4 18.3-21.9 26.8-26.3 8.7-4.5 19.3-7.7 28.2-8.6 3.7-.4 6.7-1.2 6.6-1.7-.1-.6-3.3-1.3-7-1.8-31.6-3.5-58.9-28.8-63-58.5-.6-4.3-2.3-5.9-2.3-2.1M310 262.5V524h3c4.1 0 15.2-4.7 19.6-8.4 2-1.6 5.6-5.6 8-8.9l4.4-5.9V1h-35zM479 174.9v173.9l-32.1 31.3c-17.7 17.3-38.9 38-47.2 46-16.5 16-16.4 15.9-9.4 19.6 4.2 2.1 19.2 4.4 25.2 3.8 12.5-1.3 9.5 1 46.3-35.1 18.9-18.4 34.5-33.4 34.7-33.4.6 0 36.2 34.7 55.7 54.2 6.4 6.4 13 12.3 14.6 13.2 8.5 4.4 31.8 1.7 38.5-4.4l3.2-3-18.1-17.7c-10-9.8-31.3-30.6-47.3-46.2L514 348.7V1h-35zM649.8 91.5l-.3 90.6-26.5.2-26.5.2-.3 17.2-.2 17.3 4.2.2c2.4.1 14.4.2 26.8.3h22.5l.3 153.2.2 153.3h4.6c8.9 0 24.3-11 29.4-21 2-3.9 2-4.8 1.8-252.7l-.3-248.8-17.7-.3L650 1zM722 262.5V524h3.8c7.4 0 20.6-7.9 27.3-16.4l3.9-4.9V1h-35zM1054 91.5V182h-52.9l-.3 17.5c-.2 9.6-.1 17.5.2 17.6s12.2.2 26.5.4l26 .2.3 18.2.2 18.1h-53v35h53v117c0 79.7.3 117 1 117 3 0 14-4.6 18.4-7.7 5.7-4 11.8-11.4 14.7-17.6 1.8-4.1 1.9-11.4 1.9-250.5V1h-36zM1126 261.5c0 207.7.3 260.5 1.3 260.5 2.7 0 11.3-3.1 15.6-5.7 4.8-2.8 10.2-8 15.2-14.7l2.9-3.9V1h-35zM1548.1 2.5c-18.4 3.4-40.1 13.1-54.1 24.2-22.2 17.8-36.4 41.1-43.6 71.3-1.7 6.9-1.8 16.7-2.2 131.5-.3 134-.3 136.2 4.9 153.9 10 34 31.4 59.4 63.4 75.3 17.7 8.8 30.9 11.8 52.5 11.7 16.6 0 27-1.8 40.8-7.1 36.5-13.7 64.1-44.4 74.5-82.8l3.2-12 .3-126.5c.2-83.7 0-129.6-.7-135.6-2.2-18.5-10.1-39.3-20.5-53.9q-28.5-39.75-76.5-49.5c-11.6-2.4-30.4-2.6-42-.5m34.2 35c27.9 4.9 49.3 21 62.1 46.7 9 18.2 8.6 10.6 8.6 150.8 0 78.8-.4 124.8-1 129-6.5 40.7-42.3 71.3-83.5 71.2-24.9 0-47.3-9.9-63.2-28-8.4-9.7-11.3-14.3-15.3-24.1-6.4-15.5-6.1-8.8-5.8-150.1l.3-128.5 2.3-7.3c12.9-41.7 53.4-67 95.5-59.7"/><path d="M1565.6 164c-2.4 18-15.2 37.4-32.1 48.5-6.9 4.5-20.7 10-28 11.1l-5 .7 8.2 1.8c10.2 2.2 20.7 6.6 27.2 11.3 6.9 5.1 18.1 17.3 21.4 23.4 3.4 6.3 7.3 17.5 8.3 23.7.8 5.6 1.5 5.1 3-2.3 3.7-18 15.6-35.5 30.9-45.7 7.2-4.7 17.8-9 26.8-10.6l6.8-1.3-8.9-2.1c-15.1-3.6-28-11.1-38.1-22.1-7.3-8-15.5-23.8-17.6-33.7-.7-3.8-1.6-7.1-1.8-7.3-.2-.3-.7 1.8-1.1 4.6M1743 262.5c0 228.8.2 261.5 1.5 261.5 6.1 0 22.9-9.8 27.6-16.2 5.7-7.7 5.4 2 5.6-144.3.1-74.3.2-136.2.2-137.8l.1-2.7h66v-36l-33.2-.2-33.1-.3V93.7l.1-92.7H1743zM1979 2.6c-15.7 2.9-33.4 10.1-47.1 19.3-4.1 2.7-11.7 9.4-17 14.8-16.9 17.2-26.4 35.1-32.1 60.1-2.2 9.6-2.2 10.4-2.6 129.2-.3 125 0 138.6 3.9 153.6 9.3 36.1 30.7 62.7 63.7 79.3 36.9 18.6 81.5 15.3 117.3-8.5 27-18 43.8-43.6 50.6-76.9 1.7-8.4 1.8-17.1 1.8-137.5 0-138.1.1-134.3-5.2-151.5-3.7-12-7-19-13.9-29.5-18.2-27.7-44.5-45.4-77.5-52-11.9-2.4-30.2-2.5-41.9-.4m41.5 36.4c10.4 2.7 19.2 6.8 27.5 13 12.1 9 20 18.6 27 33 7.9 16.6 7.5 7.6 7.5 151.5 0 118.7-.1 128.5-1.8 134.8-4.9 19.2-18.4 38.9-33.7 49.2-15.3 10.2-30.5 14.8-48.5 14.7-14-.1-23.5-2.4-37.5-9.3-9.2-4.5-11.6-6.3-19.7-14.4-10.4-10.5-15-17.1-19.1-27.7-6-15.1-5.7-7.1-5.7-148.3 0-141.7-.4-132.1 5.5-147.8 4.9-13 20.1-30.8 33.7-39.4 18-11.3 43.1-14.9 64.8-9.3"/><path d="M1998.8 159c-.3.8-1.3 4.9-2.2 9-6.4 28.4-31.6 50.3-61.9 53.7-3.7.5-6.9 1.2-7 1.8-.1.5 2.9 1.3 6.6 1.7 8.9.9 19.5 4.1 28.2 8.6 9.6 5 22.7 18.2 27.7 27.7 3.9 7.5 7.8 19.5 7.8 23.9s1.7 2.9 2.4-2.2c.9-6.4 6.3-19.4 11.1-26.7 11.8-17.7 31.3-29.4 52-31.2 5.3-.4 7.5-1 7.5-1.9s-1.3-1.4-3.7-1.4c-11-.1-25.3-5.1-37.2-13.1-15.2-10.1-26-26.6-29.6-44.9-.7-3.6-1.5-5.8-1.7-5M2175 262.5c0 228.8.2 261.5 1.5 261.5 3.3 0 13.4-4.5 19.2-8.6 6.5-4.6 9.7-8.3 12.6-14.7 1.6-3.7 1.7-17.9 1.7-251.8V1h-35zM849.4 7.3c-.2.7-.3 8.5-.2 17.2l.3 16 41.3.3 41.2.2v309.70000000000005l-44.4 43.4c-24.4 23.9-44.5 43.8-44.6 44.4-.4 1.2 6.6 4.7 14 7.1 6.8 2.2 23.2 2.3 27.1.2 1.5-.8 19.4-17.8 39.9-37.8 27-26.5 37.9-37.9 39.8-41.5l2.7-5 .3-177.8L967 6h-58.5c-46.9 0-58.7.3-59.1 1.3M2296 79v70h109v38h-110v36h306v-36h-161v-38h161v-36h-272l.2-34.7.3-34.8h271l.3-17.3.2-17.2h-305zM1304.1 160c-.1 1.4-.8 5.3-1.6 8.5-5.5 21.5-20 39-39.9 48.1-6.9 3.1-19.8 6.4-25.3 6.4-2.9 0-4.3.4-4.3 1.4 0 .9 2.1 1.5 7.3 1.9 9.2.7 21.4 4.6 29.6 9.4 7.4 4.4 18.2 14.7 22.8 21.6 4.3 6.6 8.8 17.8 10.6 26.2l1.4 7 .8-4c4.1-23.3 18.9-43.3 39.3-53.5 6.9-3.4 20.6-7 27-7 3.1 0 4.2-.4 4.2-1.5s-1.1-1.5-3.7-1.5c-16.6-.1-41-12.6-51.5-26.5-6.1-8-11.8-19.9-14.3-29.8-1.3-5.1-2.4-8.1-2.4-6.7M2295 271.5V289l136.3.2 136.2.3.3 11.1c.2 8.1-.1 11.4-1 12.1-1.2.9-33.2 19.5-59.8 34.7-5.8 3.2-18.7 10.7-28.7 16.5-32.6 18.9-58.6 34-69.8 40.4-6 3.5-21.8 12.5-35 20.2-13.2 7.6-27.4 15.8-31.5 18.1-4.1 2.4-17.1 9.8-28.8 16.6l-21.3 12.3.5 6.7c.8 9.5 3.7 16.6 8.8 21.5 8.3 8-4.6 7.3 140.7 7.3 126.2 0 130.2-.1 135.2-1.9 15.5-5.9 28.8-20.1 28.9-30.9V471h-242.4l9.5-5.6c5.1-3.1 18.6-10.9 29.9-17.4s30.6-17.6 43-24.8c12.4-7.1 27-15.5 32.5-18.7s18.3-10.6 28.5-16.5 23.2-13.5 29-16.8c20.4-11.7 48.5-28.3 57.2-33.9l8.8-5.7-.2-38.6-.3-38.5-153.2-.3-153.3-.2zM448.8 666.4c-9 2.4-12.9 7-13.1 15.3-.1 7.9 5.3 12.7 19.2 16.9 4.7 1.4 9.6 3.5 10.9 4.7 4 3.7 2.5 9.7-2.9 11.6-7.3 2.5-16.7 0-20.9-5.7-2.2-3-2.3-3-5.6-1.4-1.9.8-3.4 2.2-3.4 3.1 0 .8 2.2 3.6 4.8 6.1 5.7 5.5 11.4 7.4 20.4 6.8 14.6-.9 22.2-10.6 17.4-22.3-2-4.6-7.4-7.9-17.9-10.8-10.2-2.9-12.7-4.7-12.7-9.3 0-4.8 3.7-7.4 10.8-7.4 5.1 0 5.7.3 9.9 4.4l4.4 4.5 3.5-2.1 3.4-2-1.8-3c-4.6-8-16.2-12.2-26.4-9.4M883.2 666.1c-7.8 1.5-13.7 6.4-16.8 13.8-1.9 4.6-1.9 25.9 0 30.5 4.8 11.6 21.6 17.1 34.3 11.2 7-3.3 10.2-8.2 11.6-17.9 1.6-11 1.8-10.8-11.5-10.5l-11.3.3-.3 3.7-.3 3.7 7.3.3 7.3.3-.3 3.5c-.8 9.5-14.6 14.1-23.5 7.8-4.4-3.1-5.7-7.4-5.7-18.5 0-8 .4-10.4 2-13.1 3.2-5.3 7.5-7.4 14.2-6.9 6.3.4 9.6 2.5 12.5 8.1 1.3 2.5 1.9 2.7 4.6 2.2 1.7-.4 3.5-1 4-1.5 1.2-1.2-2.4-9-5.4-11.8-5-4.6-14.8-6.8-22.7-5.2M2123.3 666c-5.7 1.2-9.6 3.3-12.8 7.2-4.8 5.7-5.8 9.3-5.9 21.8-.1 11.1 0 11.7 3 17 4.4 7.7 10.3 11.3 19.6 11.8 8.4.5 14-1.4 19.3-6.5 5.1-5 6.7-9.3 7.3-19.9.5-10.8-1.2-18.1-5.8-23.6-5.3-6.4-15.5-9.6-24.7-7.8m13.5 10c5.8 3.6 7.2 7.2 7.2 18.8s-1 14.7-6.2 18.3c-4.4 3.2-13.4 3.3-17.4.3-6.1-4.5-6.9-6.6-6.9-18.2 0-9.4.3-11.2 2.3-14.3 4.1-6.7 14.2-9 21-4.9M251.7 666.6c-.4.4-.7 13.3-.7 28.6V723h9l-.2-28.3-.3-28.2-3.5-.3c-2-.2-3.9 0-4.3.4M655.7 666.7c-.4.3-.7 13.2-.7 28.5V723h38v-8h-28v-17h26v-8h-26v-16h27v-8h-17.8c-9.8 0-18.2.3-18.5.7M1082 666.9c0 .6 4.5 8.6 10 17.8l10 16.8V723h9v-22.2l7.4-12.1c7.9-13.2 11.6-20 11.6-21.7 0-.5-1.8-1-3.9-1-4.6 0-4.6.1-13.6 15.7-3.2 5.7-6.1 10.3-6.4 10.3s-3.7-5.8-7.6-12.8l-7-12.7-4.7-.3c-2.9-.2-4.8.1-4.8.7M1306.7 666.6c-.4.4-.7 13.3-.7 28.6V723h37v-8h-28v-17h26v-8h-26.1l.3-7.8.3-7.7 13.8-.3 13.8-.3-.3-3.7-.3-3.7-17.6-.3c-9.6-.1-17.8.1-18.2.4M1702 694.4V723h9l-.2-28.2-.3-28.3-4.2-.3-4.3-.3zM1886.8 666.6c-.5.4-.8 13.3-.8 28.6V723h13.1c16.4 0 19.9-1 26.5-7.5 5.7-5.7 7.4-10.4 7.4-20.8 0-12.6-4.7-21.4-13.7-25.7-4-1.9-7-2.3-18.3-2.8-7.4-.2-13.8-.1-14.2.4m30.7 11.4c4.6 4.3 5.5 7.2 5.5 17.3 0 8.1-.3 9.9-2.3 12.8-3.5 5.3-7.8 7-17.2 6.7l-8-.3-.3-19.8-.2-19.9 9.9.4c9 .3 10.2.5 12.6 2.8M2326.7 666.6c-.4.4-.7 13.3-.7 28.6V723h35v-8h-26l-.2-24.3-.3-24.2-3.5-.3c-2-.2-3.9 0-4.3.4"/></svg>