<svg xmlns="http://www.w3.org/2000/svg" width="1000.000000pt" height="500.000000pt" version="1.0" viewBox="0 0 1000.000000 500.000000"><path d="M129.3 40.6c-21.6 3.6-43 14.6-73.3 37.5-29.3 22.2-32.9 25.1-33.6 27.1-.5 1.6.6 3.3 4.7 7.4 2.9 3 5.6 5.4 6 5.4s.9-.8 1.2-1.9c.2-1 4-4.5 8.3-7.7 4.3-3.3 11.7-9 16.4-12.7 12.2-9.8 34.2-24.8 43.5-29.7 24.1-12.8 46.8-17.7 62.9-13.5 8.6 2.2 11.2 4.2 13.7 9.9 1.8 4.2 2.2 7 2.2 16.6 0 9.9-.4 13.2-3.2 23.5-11.6 43-37.7 91.2-98.5 182-37.2 55.5-41.4 62-49.4 78.1-7.5 15-10.8 25.1-12.6 38.3-1.7 11.9-1.4 21.4 1 31.6 1.7 6.9 1.9 7.2 12.3 17.6 11.8 11.8 15 13.5 27.6 14.6 19.5 1.6 42.2-7 72.5-27.3 37-24.9 52.2-37.6 87.5-73 14.3-14.3 29.4-28.8 33.6-32.1 19.4-15.3 33.7-22.8 45.8-23.9 9.5-.9 10.6-.1 12.1 8.6 1.4 8.3.3 16.7-4.1 30.3-5.7 17.7-15 35-35.9 66.2-7 10.4-13.2 20.1-13.9 21.4-1.2 2.2-.9 2.7 4.5 8.2 3.2 3.3 6.4 5.9 7 5.9 1.6 0 15.5-14.8 25.3-26.9 4.3-5.3 15.5-17.5 24.7-27.3 46.4-48.5 82.8-76.2 105-79.8 6.1-1 7.7-.9 12.5.7 4.9 1.6 5.6 2.3 7.8 6.8 4.9 10.2 6.5 31.1 3.7 47.2-2.2 12-6.9 25.3-13.7 37.9-8.3 15.6-8.2 16.7 1.9 26.7 8.8 8.7 11 9.7 22.5 9.7 8.5 0 21.9-2.7 54-11 22.7-5.8 36.1-10.3 50.3-17l10-4.7 2.9 5.4c3.5 6.8 21 24.4 27 27.2 9.9 4.6 24.7 4.8 39.6.5 15.6-4.5 40.1-20.1 59.6-38 11.9-10.8 35.3-36 46.4-49.9 8.8-11.1 14.4-18.9 42.7-59.6 41.1-59.3 79.3-96 121.7-117 16.2-8 32.5-10.1 44.1-5.8 6.5 2.5 7.8 4.6 9.4 15.6 3.7 26.1-14 56.8-46.7 81.4-9.9 7.5-30.9 20.7-41.3 25.9-3.3 1.7-6 3.4-6 3.9s3 3.8 6.8 7.5c5.6 5.4 7.5 6.7 11.7 7.6 11.5 2.4 29.5 8.3 29.5 9.7 0 2.8-4.3 9.6-8.7 13.9-18.1 17.6-57.6 25.5-81 16.2-6.4-2.5-7.7-5-4.9-9.2 1.4-2.2 1.2-2.5-4-7.7l-5.5-5.4-2 2.4c-3.6 4.4-2.6 6.6 7.9 17.3 14.5 14.9 21.5 17.8 42.8 17.8 25.5 0 43.9-6.5 58-20.5 5.3-5.3 7.3-8.1 8.3-11.5 1.7-6.2.7-8.2-8.6-17.1-7.7-7.4-8.3-7.7-18.6-10.9-5.9-1.9-10.7-3.6-10.7-3.9.1-.4 6-4.1 13.3-8.4 16.3-9.5 28.5-18.6 40-29.7 15.6-14.9 25.5-30.7 29.8-47 3-11.7 2.4-25.4-1.4-33.3-3.9-7.8-20.5-23.8-27.2-26.1-10.4-3.5-23.4-3-36.7 1.5-11.3 3.8-35.7 18.6-51.8 31.5-23.9 19.2-52.8 51.5-77.2 86.4-5.1 7.4-16 23-24.2 34.7-18.3 26.2-30.3 40.8-52.4 63.4-18.6 19.1-33 31.2-47.5 39.9-19.5 11.8-30.6 15.4-47.2 15.4-9.3.1-11.8-.3-16-2.2-2.8-1.2-5.6-3.2-6.3-4.3-1.8-2.8-5.2-11.6-6.7-17.1l-1.3-4.6 14.2-9.5c31.2-20.8 54.7-41 59.6-51.3 1.5-3 2.6-7.3 2.8-11.3l.4-6.3-8.8-8.7c-9.5-9.3-13-11.1-21.7-11.1-6.5 0-14.2 3.2-24.8 10.1-16.5 10.9-26.5 22.5-31.6 36.9-2.5 6.9-2.7 8.8-2.8 24l-.1 16.5-11.3 5.7c-16.2 8.2-30.8 13-64.1 21.5-25 6.3-31.2 7.5-40.7 8-13 .7-12.8.8-8.4-7.7 1.5-3 4.2-8.2 5.9-11.5 4.3-8.5 8.8-22.4 10.8-33.5 2.9-16.9.7-37.5-5.3-49.4-3.1-6-16-19.7-22.1-23.3-8.6-5.1-22.8-4-36.4 2.8-17.5 8.8-42.6 28.8-70.1 55.8l-16.8 16.6 4-8.5c7.1-15.2 9.5-24.8 9.5-38.5.1-14.8-.7-16.6-12.6-28.1-10.2-10-13.3-11.3-24-9.5-19.1 3.1-44.4 21.4-77.6 56-20.5 21.4-39 38-59 52.9-40.4 30.1-60.7 41.3-82.3 45.7-10.1 2.1-23.4 1.6-29.7-1-3.8-1.5-4.4-2.2-5.6-6.9-3.5-12.6-2.7-33 2-47.9 3.3-10.3 11.6-27.7 19.1-40.2 3.3-5.5 21.1-32.5 39.5-60 55.3-82.8 78-122.9 93.4-165.2 10.2-28.2 11.4-51.7 3-63.8-3.3-4.7-18.7-19.5-23.1-22.1-5-2.9-15.4-5.4-22-5.3-2.7.1-8.7.7-13.2 1.5m514.5 285c.5 6.7-3 12.8-13.2 23-9.2 9.1-26.3 22.7-43 34.1l-9.1 6.1-.3-4.6c-.2-2.6.4-7.9 1.3-11.7 3.8-15.9 15-30.5 31.9-41.4 12.7-8.2 17.6-10.1 25.6-9.8l6.5.2zM898.2 405.5c-5.8 2.8-9.2 5-9.2 6 0 3 2.8 2.6 12.4-1.9 7.5-3.6 9.6-5 9.6-6.6 0-3-2.6-2.5-12.8 2.5M874.7 402.7c-.8 1.2 4.6 17.5 7.9 23.9 1.5 3 3.3 5.4 4.1 5.4 1.8 0 1.6-1.4-.9-6.3-1.2-2.3-3.6-8.5-5.4-13.7-2.9-8.8-4.5-11.3-5.7-9.3M869 409.7c0 1 .4 2.4.9 3.2.7 1.1-.6 2.5-5.5 5.9-6.8 4.7-7.2 5.3-5.1 7.1 1.4 1.1 4.8-.9 9.7-5.8l2.4-2.5 1.3 3c.6 1.6 1.2 3.9 1.3 5.1 0 2.5 1.7 4 3 2.7 1-1-.9-9.9-3.5-16.2-1.7-4.2-4.5-5.8-4.5-2.5M839.4 417.4c-.3.7.1 3.8.9 6.7.8 3 2.1 8.2 2.8 11.7 1.2 6.3 4 11.4 5.5 9.9 1.4-1.4-6.3-29.7-8.1-29.7-.3 0-.8.6-1.1 1.4"/><path d="M849.7 416.7c-.8 1.2 1.8 14.1 3.8 19.1 2.2 5.4 4.7 6.9 8.1 4.8 2.7-1.8 7.8-11.1 6.9-12.6-1.1-1.8-2.3-1-5.5 4-1.8 2.8-3.8 4.9-4.4 4.7-1.3-.4-3.3-6-5-14.1-1.2-5.6-2.7-7.9-3.9-5.9M826.8 426.5c-2.8 1.6-4.7 7.1-3.2 9.7.4.7.4 1-.1.6-.4-.4-2.2.4-3.8 1.8l-3.1 2.6-1-2.3c-4-10.2-5.7-13.2-6.8-12.1-.8.8-.3 3.2 2 9.4 1.6 4.6 3.5 10.6 4.1 13.3 1.5 6.5 2.6 8.4 4.2 6.8.8-.8.8-2.4-.1-6.5l-1.1-5.3 3.3-2.8 3.3-2.7 1.2 4.6c3.6 14.4 13.3 9.1 13.3-7.2 0-5.6-.4-6.8-2.5-8.9-2.7-2.8-5.7-3.1-9.7-1m7 5.7c2.3 2.3.7 15.8-1.9 15.8-2.1 0-4.2-9.1-3.2-14.1.6-3.1 2.9-3.9 5.1-1.7M792.9 433.1c-6 6-7.8 18.8-3.6 26.9 1.9 3.9 2.7 4.5 5.8 4.8s4.1-.2 6.7-3.2c6.9-7.9 6.9-20.2 0-27.3-3.7-3.8-6-4.1-8.9-1.2m7.8 8.1c4.6 4.3 2.2 16.4-4 20.2-1.5.9-2.2.7-3.8-1.3-3.3-4-2.3-14.3 1.9-19.4 2-2.2 3.1-2.2 5.9.5"/></svg>